# Alias OBJ Model File
# Exported from SketchUp, (c) 2000-2012 Trimble Navigation Limited
# File units = inches

mtllib Untitled.mtl

g Mesh1 Model

usemtl Metal_Silver
v 195.663 -9.09495e-13 -141.574
vt 16.3053 -7.57912e-14
vn 0 0 1
v 430.703 -9.09495e-13 -141.574
vt 35.8919 -7.57912e-14
v 430.703 1894.49 -141.574
vt 35.8919 157.874
v 195.663 1894.49 -141.574
vt 16.3053 157.874
f 1/1/1 2/2/1 3/3/1 4/4/1 

vt 11.7978 -7.57912e-14
vn 1 0 1.17479e-15
v 430.703 -9.09495e-13 -625.432
vt 52.1194 -7.57912e-14
v 430.703 1894.49 -625.432
vt 52.1194 157.874
vt 11.7978 157.874
f 2/5/2 5/6/2 6/7/2 3/8/2 

vt -35.8919 -7.57912e-14
vn -2.71395e-16 0 -1
v -825.99 -9.09495e-13 -625.432
vt 68.8325 -7.57912e-14
v -825.99 1894.49 -625.432
vt 68.8325 157.874
vt -35.8919 157.874
f 5/9/3 7/10/3 8/11/3 6/12/3 

vt -52.1194 -7.57912e-14
vn -1 0 9.39836e-16
v -825.99 -9.09495e-13 -141.574
vt -11.7978 -7.57912e-14
v -825.99 1894.49 -141.574
vt -11.7978 157.874
vt -52.1194 157.874
f 7/13/4 9/14/4 10/15/4 8/16/4 

vt -68.8325 -7.57912e-14
vn 2.60789e-15 0 1
v -586.227 -9.09495e-13 -141.574
vt -48.8522 -7.57912e-14
v -586.227 1894.49 -141.574
vt -48.8522 157.874
vt -68.8325 157.874
f 9/17/5 11/18/5 12/19/5 10/20/5 

v -586.227 -9.09495e-13 244.253
vt -20.3544 -7.57912e-14
vn 1 -4.211e-33 -1.47329e-15
v -586.227 2008.66 -141.574
vt 11.7978 167.388
v -586.227 2008.66 244.253
vt -20.3544 167.388
v -586.227 1894.49 244.253
vt -20.3544 157.874
f 13/21/6 11/5/6 12/8/6 14/22/6 15/23/6 16/24/6 

v -466.148 1894.49 -141.574
vt 38.8457 157.874
vn 1.42015e-15 0 -1
vt 48.8522 157.874
vt 48.8522 167.388
v -466.148 2008.66 -141.574
vt 38.8457 167.388
f 17/25/7 12/26/7 14/27/7 18/28/7 

vt -38.8457 11.7978
vn 1.82233e-31 1 -9.94095e-31
v -541.782 1894.49 -182.651
vt -45.1485 15.2209
vt -48.8522 11.7978
f 17/29/8 19/30/8 12/31/8

v -325.337 1894.49 -182.651
vt -27.1114 15.2209
f 19/30/8 17/29/8 20/32/8

v -432.471 1894.49 -120.546
vt -36.0392 10.0455
f 20/32/8 17/29/8 21/33/8

vt 35.8898 157.874
vn 0.605372 0 -0.795943
vt 39.1984 157.874
vn 0.529641 0 -0.848222
vt 39.1984 167.388
v -432.471 2008.66 -120.546
vt 35.8898 167.388
f 21/34/9 17/35/10 18/36/10 22/37/9 

vt 48.8522 11.7978
vn 0 -1 -0
vt 38.8457 11.7978
vt 36.0392 10.0455
v -403.212 2008.66 -93.7071
vt 33.601 7.80892
v -379.362 2008.66 -61.9658
vt 31.6135 5.16381
v -361.726 2008.66 -26.3945
vt 30.1438 2.19954
v -350.9 2008.66 11.8042
vt 29.2417 -0.983687
v -347.25 2008.66 51.3394
vt 28.9375 -4.27828
v -350.9 2008.66 90.8745
vt 29.2417 -7.57288
v -361.726 2008.66 129.073
vt 30.1438 -10.7561
v -379.362 2008.66 164.645
vt 31.6135 -13.7204
v -403.212 2008.66 196.386
vt 33.601 -16.3655
v -432.471 2008.66 223.224
vt 36.0392 -18.602
v -466.148 2008.66 244.253
vt 38.8457 -20.3544
vt 48.8522 -20.3544
f 14/38/11 18/39/11 22/40/11 23/41/11 24/42/11 25/43/11 26/44/11 27/45/11 28/46/11 29/47/11 30/48/11 31/49/11 32/50/11 33/51/11 15/52/11 

v -403.212 1894.49 -93.7071
vt 30.04 157.874
vn 0.740857 0 -0.671662
vt 33.3486 157.874
vt 33.3486 167.388
vt 30.04 167.388
f 34/53/12 21/54/9 22/55/9 23/56/12 

vt -33.601 7.80892
f 20/32/8 21/33/8 34/57/8

v -379.362 1894.49 -61.9658
vt -31.6135 5.16381
f 20/32/8 34/57/8 35/58/8

vt 23.119 157.874
vn 0.8513 4.46044e-31 -0.524679
vt 26.4276 157.874
vt 26.4276 167.388
vt 23.119 167.388
f 35/59/13 34/60/12 23/61/12 24/62/13 

v -361.726 1894.49 -26.3945
vt 15.3605 157.874
vn 0.932968 4.46044e-31 -0.35996
vt 18.6691 157.874
vt 18.6691 167.388
vt 15.3605 167.388
f 36/63/14 35/64/13 24/65/13 25/66/14 

vt -30.1438 2.19954
f 20/32/8 35/58/8 36/67/8

v -350.9 1894.49 11.8042
vt -29.2417 -0.983687
f 20/32/8 36/67/8 37/68/8

vt 7.02697 157.874
vn 0.983099 0 -0.183074
vt 10.3356 157.874
vt 10.3356 167.388
vt 7.02697 167.388
f 37/69/15 36/70/14 25/71/14 26/72/15 

v -347.25 1894.49 51.3394
vt -1.60005 157.874
vn 1 0 3.02429e-15
vt 1.70856 157.874
vt 1.70856 167.388
vt -1.60005 167.388
f 38/73/16 37/74/15 26/75/15 27/76/16 

vt -28.9375 -4.27828
f 20/32/8 37/68/8 38/77/8

v 238.97 1894.49 660.394
vt 19.9142 -55.0329
f 38/77/8 39/78/8 20/32/8

v -350.9 1894.49 90.8745
vt -29.2417 -7.57288
f 40/79/8 39/78/8 38/77/8

v -361.726 1894.49 129.073
vt -30.1438 -10.7561
f 41/80/8 39/78/8 40/79/8

v -379.362 1894.49 164.645
vt -31.6135 -13.7204
f 42/81/8 39/78/8 41/80/8

v -403.212 1894.49 196.386
vt -33.601 -16.3655
f 43/82/8 39/78/8 42/81/8

v -432.471 1894.49 223.224
vt -36.0392 -18.602
f 44/83/8 39/78/8 43/82/8

v -466.148 1894.49 244.253
vt -38.8457 -20.3544
f 45/84/8 39/78/8 44/83/8

vt -48.8522 -20.3544
f 16/85/8 39/78/8 45/84/8

v -672.447 1894.49 593.072
vt -56.0373 -49.4226
f 46/86/8 39/78/8 16/85/8

v -672.447 1894.49 660.394
vt -56.0373 -55.0329
f 39/78/8 46/86/8 47/87/8

v -672.447 -9.09495e-13 593.072
vt 49.4226 -7.57912e-14
vn -1 0 -5.06605e-15
v -672.447 -9.09495e-13 660.394
vt 55.0329 -7.57912e-14
vt 55.0329 157.874
vt 49.4226 157.874
f 48/88/17 49/89/17 47/90/17 46/91/17 

vt -56.0373 -7.57912e-14
vn 1.12263e-15 0 1
v 238.97 -9.09495e-13 660.394
vt 19.9142 -7.57912e-14
vt 19.9142 157.874
vt -56.0373 157.874
f 49/92/18 50/93/18 39/94/18 47/95/18 

vt -55.0329 -7.57912e-14
vn 1 0 1.18208e-14
v 238.97 -9.09495e-13 593.072
vt -49.4226 -7.57912e-14
v 238.97 1894.49 593.072
vt -49.4226 157.874
vt -55.0329 157.874
f 50/96/19 51/97/19 52/98/19 39/99/19 

vn -2.64922e-15 0 1
v 496.451 -9.09495e-13 593.072
vt 41.3709 -7.57912e-14
v 496.451 1894.49 593.072
vt 41.3709 157.874
f 51/93/20 53/100/20 54/101/20 52/94/20 

vn -1 0 -3.37736e-15
v 496.451 -9.09495e-13 660.394
v 496.451 1894.49 660.394
f 53/88/21 55/89/21 56/90/21 54/91/21 

vn -1.73432e-15 0 1
v 889.758 -9.09495e-13 660.394
vt 74.1465 -7.57912e-14
v 889.758 1894.49 660.394
vt 74.1465 157.874
f 55/100/22 57/102/22 58/103/22 56/101/22 

vn 1 0 -2.18761e-15
v 889.758 -9.09495e-13 244.646
vt -20.3872 -7.57912e-14
v 889.758 1894.49 244.646
vt -20.3872 157.874
f 57/96/23 59/104/23 60/105/23 58/99/23 

vt -74.1465 -7.57912e-14
vn 3.27583e-16 0 -1
v 195.663 -9.09495e-13 244.646
vt -16.3053 -7.57912e-14
v 195.663 1894.49 244.646
vt -16.3053 157.874
vt -74.1465 157.874
f 59/106/24 61/107/24 62/108/24 60/109/24 

vn -1 4.2213e-33 5.88715e-16
vt 20.3872 -7.57912e-14
vt 20.3872 157.874
v 195.663 2008.66 244.646
vt 20.3872 167.388
v 195.663 2008.66 -141.574
vt -11.7978 167.388
f 1/14/25 61/110/25 62/111/25 63/112/25 64/113/25 4/15/25 

v 74.4033 1894.49 244.646
vt 6.20027 157.874
vn -9.37547e-16 0 1
vt 16.3053 167.388
v 74.4033 2008.66 244.646
vt 6.20027 167.388
f 65/114/26 62/4/26 63/115/26 66/116/26 

vt 6.20027 -20.3872
vt 16.3053 -20.3872
f 65/117/8 39/78/8 62/118/8

v 40.4315 1894.49 223.776
vt 3.36929 -18.648
f 67/119/8 39/78/8 65/117/8

v 10.8902 1894.49 197
vt 0.907514 -16.4166
f 68/120/8 39/78/8 67/119/8

v -13.2079 1894.49 165.236
vt -1.10066 -13.7697
f 69/121/8 39/78/8 68/120/8

f 20/32/8 39/78/8 69/121/8

v -31.0364 1894.49 129.574
vt -2.58637 -10.7978
f 20/32/8 69/121/8 70/122/8

vt 8.50161 157.874
vn -0.932012 0 0.362427
vt 11.8242 157.874
vn -0.849212 0 0.528052
v -13.2079 2008.66 165.236
vt 11.8242 167.388
v -31.0364 2008.66 129.574
vt 8.50161 167.388
f 70/123/27 69/124/28 71/125/28 72/126/27 

vt 10.3047 157.874
vt 13.6272 157.874
vn -0.737294 2.94116e-18 0.675572
v 10.8902 2008.66 197
vt 13.6272 167.388
vt 10.3047 167.388
f 69/127/28 68/128/29 73/129/29 71/130/28 

vt 11.6975 157.874
vt 15.02 157.874
vn -0.600096 2.94116e-18 0.799928
v 40.4315 2008.66 223.776
vt 15.02 167.388
vt 11.6975 167.388
f 68/131/29 67/132/30 74/133/30 73/134/29 

vt 12.6322 157.874
vt 15.9548 157.874
vn -0.523457 0 0.852052
vt 15.9548 167.388
vt 12.6322 167.388
f 67/135/30 65/136/31 66/137/31 74/138/30 

vt -16.3053 -20.3872
vt -6.20027 -20.3872
vt -3.36929 -18.648
vt -0.907514 -16.4166
vt 1.10066 -13.7697
vt 2.58637 -10.7978
v -41.984 2008.66 91.2355
vt 3.49867 -7.60296
v -45.6754 2008.66 51.5362
vt 3.80629 -4.29469
v -41.984 2008.66 11.837
vt 3.49867 -0.986414
v -31.0364 2008.66 -26.5011
vt 2.58637 2.20843
v -13.2079 2008.66 -62.1634
vt 1.10066 5.18029
v 10.8902 2008.66 -93.9273
vt -0.907514 7.82727
v 40.4315 2008.66 -120.704
vt -3.36929 10.0586
v 74.4033 2008.66 -141.574
vt -6.20027 11.7978
vt -16.3053 11.7978
f 63/139/11 66/140/11 74/141/11 73/142/11 71/143/11 72/144/11 75/145/11 76/146/11 77/147/11 78/148/11 79/149/11 80/150/11 81/151/11 82/152/11 64/153/11 

v -41.984 1894.49 91.2355
vt 6.35007 157.874
vn -0.982856 0 0.184374
vt 9.67261 157.874
vt 9.67261 167.388
vt 6.35007 167.388
f 83/154/32 70/155/27 72/156/27 75/157/32 

v -325.337 1894.49 -552.73
vt -27.1114 46.0608
vt -3.49867 -7.60296
f 84/158/8 70/122/8 83/159/8

f 20/32/8 70/122/8 84/158/8

v -325.337 2008.66 -552.73
vt -46.0608 167.388
vn -1 1.52292e-46 1.53598e-16
vt -46.0608 157.874
vt -15.2209 157.874
v -325.337 2008.66 -182.651
vt -15.2209 167.388
f 85/160/33 84/161/33 20/162/33 86/163/33 

vt 27.1114 157.874
vn 0 0 -1
v -541.782 1894.49 -552.73
vt 45.1485 157.874
v -541.782 2008.66 -552.73
vt 45.1485 167.388
vt 27.1114 167.388
f 84/164/34 87/165/34 88/166/34 85/167/34 

vt 35.8919 52.1194
vt -45.1485 46.0608
f 6/168/8 87/169/8 84/158/8

vt -68.8325 52.1194
f 8/170/8 87/169/8 6/168/8

vt -68.8325 11.7978
f 87/169/8 8/170/8 10/171/8

f 87/169/8 10/171/8 12/31/8

f 87/169/8 12/31/8 19/30/8

vn -1 0 -9.21589e-16
v -541.782 2008.66 -182.651
f 87/161/35 19/162/35 89/163/35 88/160/35 

vt -45.1485 157.874
vn -2.88886e-15 -7.16074e-46 1
vt -27.1114 157.874
vt -27.1114 167.388
vt -45.1485 167.388
f 19/172/36 20/173/36 86/174/36 89/175/36 

vt 27.1114 46.0608
vt 27.1114 15.2209
vt 45.1485 15.2209
vt 45.1485 46.0608
f 85/176/11 86/177/11 89/178/11 88/179/11 

v 9.19087 1894.49 -552.73
vt 0.765906 46.0608
f 6/168/8 84/158/8 90/180/8

v -45.6754 1894.49 51.5362
vt -3.80629 -4.29469
f 90/180/8 84/158/8 91/181/8

f 84/158/8 83/159/8 91/181/8

vt 3.92384 157.874
vn -1 2.30484e-32 -7.94446e-16
vt 7.24638 157.874
vt 7.24638 167.388
vt 3.92384 167.388
f 91/182/37 83/183/32 75/184/32 76/185/37 

v -41.984 1894.49 11.837
vt 1.3061 157.874
vn -0.982856 2.30484e-32 -0.184374
vt 4.62864 157.874
vt 4.62864 167.388
vt 1.3061 167.388
f 92/186/38 91/187/37 76/188/37 77/189/38 

vt -3.49867 -0.986414
f 90/180/8 91/181/8 92/190/8

v -31.0364 1894.49 -26.5011
vt -2.58637 2.20843
f 90/180/8 92/190/8 93/191/8

vt -1.41338 157.874
vn -0.932012 0 -0.362427
vt 1.90916 157.874
vt 1.90916 167.388
vt -1.41338 167.388
f 93/192/39 92/193/38 77/194/38 78/195/39 

v -13.2079 1894.49 -62.1634
vt -4.14136 157.874
vn -0.849212 -3.96654e-31 -0.528052
vt -0.818815 157.874
vt -0.818815 167.388
vt -4.14136 167.388
f 94/196/40 93/197/39 78/198/39 79/199/40 

vt -1.10066 5.18029
f 90/180/8 93/191/8 94/200/8

v 9.19087 1894.49 -182.651
vt 0.765906 15.2209
f 90/180/8 94/200/8 95/201/8

v 10.8902 1894.49 -93.9273
vt 0.907514 7.82727
f 96/202/8 95/201/8 94/200/8

v 40.4315 1894.49 -120.704
vt 3.36929 10.0586
f 95/201/8 96/202/8 97/203/8

vt -9.25159 157.874
vn -0.600096 0 -0.799928
vt -5.92904 157.874
vn -0.737294 -3.96654e-31 -0.675572
vt -5.92904 167.388
vt -9.25159 167.388
f 97/204/41 96/205/42 80/206/42 81/207/41 

vt -6.7843 157.874
vt -3.46176 157.874
vt -3.46176 167.388
vt -6.7843 167.388
f 96/208/42 94/209/40 79/210/40 80/211/42 

v 74.4033 1894.49 -141.574
vt -11.4586 157.874
vn -0.523457 0 -0.852052
vt -8.13607 157.874
vt -8.13607 167.388
vt -11.4586 167.388
f 98/212/43 97/213/41 81/214/41 82/215/43 

vt 6.20027 11.7978
f 95/201/8 97/203/8 98/216/8

v 224.36 1894.49 -182.651
vt 18.6967 15.2209
f 95/201/8 98/216/8 99/217/8

vt 16.3053 11.7978
f 99/217/8 98/216/8 4/218/8

vn -9.37547e-16 9.29576e-46 -1
vt -6.20027 157.874
vt -6.20027 167.388
vt -16.3053 167.388
f 4/108/44 98/219/44 82/220/44 64/221/44 

vt 35.8919 11.7978
f 99/217/8 4/218/8 3/222/8

v 224.36 1894.49 -552.73
vt 18.6967 46.0608
f 99/217/8 3/222/8 100/223/8

f 6/168/8 100/223/8 3/222/8

f 6/168/8 90/180/8 100/223/8

vt -18.6967 157.874
vn -4.22688e-15 -2.94912e-31 -1
vt -0.765906 157.874
v 9.19087 2008.66 -552.73
vt -0.765906 167.388
v 224.36 2008.66 -552.73
vt -18.6967 167.388
f 100/224/45 90/225/45 101/226/45 102/227/45 

v 9.19087 2008.66 -182.651
vt 15.2209 167.388
vn 1 0 -1.53598e-16
vt 15.2209 157.874
vt 46.0608 157.874
vt 46.0608 167.388
f 103/228/46 95/229/46 90/230/46 101/231/46 

vt 0.765906 157.874
vn -3.43434e-15 0 1
vt 18.6967 157.874
v 224.36 2008.66 -182.651
vt 18.6967 167.388
vt 0.765906 167.388
f 95/232/47 99/233/47 104/234/47 103/235/47 

vn 1 6.09169e-46 6.14393e-16
f 99/229/48 100/230/48 102/231/48 104/228/48 

vt -18.6967 46.0608
vt -18.6967 15.2209
vt -0.765906 15.2209
vt -0.765906 46.0608
f 102/236/11 104/237/11 103/238/11 101/239/11 

vt 19.9142 -49.4226
f 62/118/8 39/78/8 52/240/8

vt 74.1465 -20.3872
f 62/118/8 52/240/8 60/241/8

vt 41.3709 -49.4226
f 60/241/8 52/240/8 54/242/8

vt 74.1465 -55.0329
f 54/242/8 58/243/8 60/241/8

vt 41.3709 -55.0329
f 58/243/8 54/242/8 56/244/8

v -938.589 -9.09495e-13 593.072
vt -78.2157 -7.57912e-14
vn 8.54333e-16 0 1
v -938.589 1894.49 593.072
vt -78.2157 157.874
f 105/245/49 48/92/49 46/95/49 106/246/49 

vt -78.2157 -49.4226
f 16/85/8 106/247/8 46/86/8

v -1285.05 1894.49 244.253
vt -107.087 -20.3544
f 107/248/8 106/247/8 16/85/8

v -938.589 1894.49 660.394
vt -78.2157 -55.0329
f 107/248/8 108/249/8 106/247/8

v -1285.05 1894.49 660.394
vt -107.087 -55.0329
f 108/249/8 107/248/8 109/250/8

v -1285.05 -9.09495e-13 244.253
vt 20.3544 -7.57912e-14
vn -1 0 -2.18554e-15
v -1285.05 -9.09495e-13 660.394
vt 20.3544 157.874
f 110/251/50 111/89/50 109/90/50 107/252/50 

vt -107.087 -7.57912e-14
vn 1.64071e-15 0 1
v -938.589 -9.09495e-13 660.394
vt -107.087 157.874
f 111/253/51 112/245/51 108/246/51 109/254/51 

vn 1 0 -3.37736e-15
f 112/96/52 105/97/52 106/98/52 108/99/52 

vt 48.8522 -7.57912e-14
vn -1.38282e-15 0 -1
vt 107.087 -7.57912e-14
vt 107.087 157.874
f 13/255/53 110/256/53 107/257/53 16/26/53 

vn -2.84031e-15 0 1
vt -38.8457 157.874
vt -38.8457 167.388
vt -48.8522 167.388
f 16/19/54 45/258/54 33/259/54 15/260/54 

vt -43.7303 157.874
vn 0.529641 0 0.848222
vt -40.4217 157.874
vn 0.605372 3.22713e-18 0.795943
vt -40.4217 167.388
vt -43.7303 167.388
f 45/261/55 44/262/56 32/263/56 33/264/55 

vt -39.1327 157.874
vt -35.8241 157.874
vn 0.740857 3.22713e-18 0.671662
vt -35.8241 167.388
vt -39.1327 167.388
f 44/265/56 43/266/57 31/267/57 32/268/56 

vt -33.2682 157.874
vt -29.9596 157.874
vn 0.8513 5.08593e-31 0.524679
vt -29.9596 167.388
vt -33.2682 167.388
f 43/269/57 42/270/58 30/271/58 31/272/57 

vt -26.3352 157.874
vt -23.0266 157.874
vn 0.932968 1.7845e-31 0.35996
vt -23.0266 167.388
vt -26.3352 167.388
f 42/273/58 41/274/59 29/275/59 30/276/58 

vt -18.5679 157.874
vt -15.2593 157.874
vn 0.983099 6.78758e-32 0.183074
vt -15.2593 167.388
vt -18.5679 167.388
f 41/277/59 40/278/60 28/279/60 29/280/59 

vt -10.2289 157.874
vt -6.92029 157.874
vt -6.92029 167.388
vt -10.2289 167.388
f 40/281/60 38/282/16 27/283/16 28/284/60 

