# Alias OBJ Model File
# Exported from SketchUp, (c) 2000-2012 Trimble Navigation Limited
# File units = inches

mtllib building_small.mtl

g Mesh1 Group1 Model

usemtl Metal_Silver
v 120.199 1813.78 1.34078
vt -0.111732 151.148
vn 1 0 -0
v 120.199 1813.78 -266.769
vt 22.2308 151.148
v 120.199 1903.94 -266.769
vt 22.2308 158.661
v 120.199 1903.94 1.34078
vt -0.111732 158.661
f 1/1/1 2/2/1 3/3/1 4/4/1 

vt 10.0165 -0.111732
vn 0 1 -0
v 215.474 1813.78 100.947
vt 17.9562 -8.41226
vt 10.0165 22.2308
f 1/5/2 5/6/2 2/7/2

v 25.3167 1813.78 1.34078
vt 2.10972 -0.111732
f 6/8/2 5/6/2 1/5/2

v 25.3167 1813.78 100.947
vt 2.10972 -8.41226
f 5/6/2 6/8/2 7/9/2

vt -8.41226 151.148
v 25.3167 1903.94 1.34078
v 25.3167 1903.94 100.947
vt -8.41226 158.661
f 7/10/1 6/1/1 8/4/1 9/11/1 

vt 2.10972 151.148
vn 0 0 1
vt 10.0165 151.148
vt 10.0165 158.661
vt 2.10972 158.661
f 6/12/3 1/13/3 4/14/3 8/15/3 

v -325.077 1903.94 -270.925
vt 27.0898 22.5771
vn 0 -1 -0
vt -10.0165 22.2308
vt -10.0165 -0.111732
vt -2.10972 -0.111732
vt -2.10972 -8.41226
v 215.474 1903.94 100.947
vt -17.9562 -8.41226
v 215.474 1903.94 386.501
vt -17.9562 -32.2084
v -640.825 1903.94 386.501
vt 53.4021 -32.2084
v -640.825 1903.94 114.06
vt 53.4021 -9.50502
v -238.463 1903.94 114.06
vt 19.8719 -9.50502
v -238.463 1903.94 -11.5303
vt 19.8719 0.960859
v -325.077 1903.94 -11.5303
vt 27.0898 0.960859
f 10/16/4 3/17/4 4/18/4 8/19/4 9/20/4 11/21/4 12/22/4 13/23/4 14/24/4 15/25/4 16/26/4 17/27/4 

vt -9.80863 151.148
vn 0.00933281 0 -0.999956
v -325.077 1813.78 -270.925
vt 27.2993 151.148
vt 27.2993 158.661
vt -9.80863 158.661
f 2/28/5 18/29/5 10/30/5 3/31/5 

v 539.519 1813.78 -750.9
vt 44.9599 62.575
vt -27.0898 22.5771
f 19/32/2 18/33/2 2/7/2

v -601.819 1813.78 -750.9
vt -50.1516 62.575
f 20/34/2 18/33/2 19/32/2

v -368.355 1813.78 -236.333
vt -30.6962 19.6945
f 20/34/2 21/35/2 18/33/2

v -601.819 1813.78 -236.333
vt -50.1516 19.6945
f 21/35/2 20/34/2 22/36/2

v -601.819 -9.09495e-13 -750.9
vt -62.575 -7.57912e-14
vn -1 0 -0
v -601.819 -9.09495e-13 -236.333
vt -19.6945 -7.57912e-14
vt -19.6945 151.148
vt -62.575 151.148
f 23/37/6 24/38/6 22/39/6 20/40/6 

vt -50.1516 -7.57912e-14
v -368.355 -9.09495e-13 -236.333
vt -30.6962 -7.57912e-14
vt -30.6962 151.148
vt -50.1516 151.148
f 24/41/3 25/42/3 21/43/3 22/44/3 

v -368.355 -9.09495e-13 -11.5303
vt -0.960859 -7.57912e-14
v -368.355 1813.78 -11.5303
vt -0.960859 151.148
f 25/38/6 26/45/6 27/46/6 21/39/6 

vt 30.6962 -7.57912e-14
vn 0 0 -1
v -753.001 -9.09495e-13 -11.5303
vt 62.75 -7.57912e-14
v -753.001 1813.78 -11.5303
vt 62.75 151.148
vt 30.6962 151.148
f 26/47/7 28/48/7 29/49/7 27/50/7 

v -753.001 -9.09495e-13 511.698
vt 42.6415 -7.57912e-14
v -753.001 1813.78 511.698
vt 42.6415 151.148
f 28/45/6 30/51/6 31/52/6 29/46/6 

vt -62.75 -7.57912e-14
v 422.984 -9.09495e-13 511.698
vt 35.2486 -7.57912e-14
v 422.984 1813.78 511.698
vt 35.2486 151.148
vt -62.75 151.148
f 30/53/3 32/54/3 33/55/3 31/56/3 

vt -42.6415 -7.57912e-14
v 422.984 -9.09495e-13 -11.5303
vt 0.960859 -7.57912e-14
v 422.984 1813.78 -11.5303
vt 0.960859 151.148
vt -42.6415 151.148
f 32/57/1 34/58/1 35/59/1 33/60/1 

vt -35.2486 -7.57912e-14
v 215.503 -9.09495e-13 -11.5303
vt -17.9586 -7.57912e-14
v 215.503 1813.78 -11.5303
vt -17.9586 151.148
vt -35.2486 151.148
f 34/61/7 36/62/7 37/63/7 35/64/7 

v 215.503 -9.09495e-13 -227.672
vt 18.9727 -7.57912e-14
v 215.503 1813.78 -227.672
vt 18.9727 151.148
f 36/58/1 38/65/1 39/66/1 37/59/1 

vt 17.9586 -7.57912e-14
v 539.519 -9.09495e-13 -227.672
vt 44.9599 -7.57912e-14
v 539.519 1813.78 -227.672
vt 44.9599 151.148
vt 17.9586 151.148
f 38/67/3 40/68/3 41/69/3 39/70/3 

v 539.519 -9.09495e-13 -750.9
vt 62.575 -7.57912e-14
vt 62.575 151.148
f 40/65/1 42/71/1 19/72/1 41/66/1 

vt -44.9599 -7.57912e-14
vt 50.1516 -7.57912e-14
vt 50.1516 151.148
vt -44.9599 151.148
f 42/73/7 23/74/7 20/75/7 19/76/7 

vt 17.9586 18.9727
vt 44.9599 18.9727
f 19/32/2 39/77/2 41/78/2

f 19/32/2 2/7/2 39/77/2

f 39/77/2 2/7/2 5/6/2

vt 17.9586 0.960859
f 39/77/2 5/6/2 37/79/2

vt 35.2486 -42.6415
f 5/6/2 33/80/2 37/79/2

v 215.474 1813.78 386.501
vt 17.9562 -32.2084
f 43/81/2 33/80/2 5/6/2

v -640.825 1813.78 386.501
vt -53.4021 -32.2084
f 44/82/2 33/80/2 43/81/2

vt -62.75 -42.6415
f 44/82/2 31/83/2 33/80/2

vt -62.75 0.960859
f 31/83/2 44/82/2 29/84/2

v -640.825 1813.78 114.06
vt -53.4021 -9.50502
f 45/85/2 29/84/2 44/82/2

vt -30.6962 0.960859
f 29/84/2 45/85/2 27/86/2

v -238.463 1813.78 114.06
vt -19.8719 -9.50502
f 27/86/2 45/85/2 46/87/2

vt 19.8719 151.148
vt 53.4021 151.148
vt 53.4021 158.661
vt 19.8719 158.661
f 46/88/7 45/89/7 14/90/7 15/91/7 

vt 9.50502 151.148
vt 32.2084 151.148
vt 32.2084 158.661
vt 9.50502 158.661
f 45/92/6 44/93/6 13/94/6 14/95/6 

vt -53.4021 151.148
vt 17.9562 151.148
vt 17.9562 158.661
vt -53.4021 158.661
f 44/96/3 43/97/3 12/98/3 13/99/3 

vt -32.2084 151.148
vt -32.2084 158.661
f 43/100/1 5/10/1 11/11/1 12/101/1 

vt -17.9562 151.148
vt -2.10972 151.148
vt -2.10972 158.661
vt -17.9562 158.661
f 5/102/7 7/103/7 9/104/7 11/105/7 

v -238.463 1813.78 -11.5303
vt -0.960859 158.661
f 47/46/6 46/92/6 15/95/6 16/106/6 

v -325.077 1813.78 -11.5303
vt -27.0898 0.960859
vt -19.8719 0.960859
f 48/107/2 46/87/2 47/108/2

f 27/86/2 46/87/2 48/107/2

f 27/86/2 48/107/2 21/35/2

f 18/33/2 21/35/2 48/107/2

vt -22.5771 151.148
vt -22.5771 158.661
f 18/109/6 48/46/6 17/106/6 10/110/6 

vt -27.0898 151.148
vt -19.8719 151.148
vt -19.8719 158.661
vt -27.0898 158.661
f 48/111/3 47/112/3 16/113/3 17/114/3 

vt 35.2486 0.960859
f 37/79/2 33/80/2 35/115/2

