# CAD Exchanger 3.5.3 (cadexchanger.com)
# Object Count: 1
mtllib elevator_pit_floor.mtl
g Part19
v 1705.662663 96.140327 1383.799070
v 1705.662663 96.140327 -616.200930
v 1705.662663 146.140327 -616.200930
v 1705.662663 146.140327 1383.799070
v -1294.337337 96.140327 -616.200930
v -1294.337337 146.140327 -616.200930
v -1294.337337 96.140327 1383.799070
v -1294.337337 146.140327 1383.799070
vn 1.000000 0.000000 0.000000
vn 1.000000 0.000000 0.000000
vn 1.000000 0.000000 0.000000
vn 1.000000 0.000000 0.000000
vn -0.000000 -0.000000 -1.000000
vn -0.000000 -0.000000 -1.000000
vn -0.000000 -0.000000 -1.000000
vn -0.000000 -0.000000 -1.000000
vn -1.000000 0.000000 0.000000
vn -1.000000 0.000000 0.000000
vn -1.000000 0.000000 0.000000
vn -1.000000 0.000000 0.000000
vn 0.000000 0.000000 1.000000
vn 0.000000 0.000000 1.000000
vn 0.000000 0.000000 1.000000
vn 0.000000 0.000000 1.000000
vn 0.000000 1.000000 0.000000
vn 0.000000 1.000000 0.000000
vn 0.000000 1.000000 0.000000
vn 0.000000 1.000000 0.000000
vn 0.000000 -1.000000 0.000000
vn 0.000000 -1.000000 0.000000
vn 0.000000 -1.000000 0.000000
vn 0.000000 -1.000000 0.000000
usemtl Material_1
f 3//3 4//2 1//1
f 2//4 3//3 1//1
f 6//7 3//6 2//5
f 5//8 6//7 2//5
f 8//11 6//10 5//9
f 7//12 8//11 5//9
f 4//15 8//14 7//13
f 1//16 4//15 7//13
f 6//19 8//18 3//20
f 3//20 8//18 4//17
f 1//22 7//23 2//21
f 5//24 2//21 7//23
