# CAD Exchanger 3.5.3 (cadexchanger.com)
# Object Count: 2
mtllib guide_shoes_main.mtl
g Part3
v 721.708708 593.519046 328.120765
v 655.068708 593.519046 328.120765
v 655.068708 2493.519046 328.120765
v 721.708708 2493.519046 328.120765
v 655.068708 593.519046 439.460765
v 655.068708 2493.519046 439.460765
v 721.708708 593.519046 439.460765
v 721.708708 2493.519046 439.460765
v 721.708708 593.519046 411.447628
v 721.708708 2493.519046 411.447628
v 683.311219 593.519046 411.447628
v 683.311219 2493.519046 411.447628
v 683.311219 593.519046 356.147628
v 683.311219 2493.519046 356.147628
v 721.708708 593.519046 356.147628
v 721.708708 2493.519046 356.147628
vn -0.000000 0.000000 -1.000000
vn -0.000000 0.000000 -1.000000
vn -0.000000 0.000000 -1.000000
vn -0.000000 0.000000 -1.000000
vn -1.000000 0.000000 0.000000
vn -1.000000 0.000000 0.000000
vn -1.000000 0.000000 0.000000
vn -1.000000 0.000000 0.000000
vn 0.000000 0.000000 1.000000
vn 0.000000 0.000000 1.000000
vn 0.000000 0.000000 1.000000
vn 0.000000 0.000000 1.000000
vn 1.000000 0.000000 -0.000000
vn 1.000000 0.000000 -0.000000
vn 1.000000 0.000000 -0.000000
vn 1.000000 0.000000 -0.000000
vn -0.000000 0.000000 -1.000000
vn -0.000000 0.000000 -1.000000
vn -0.000000 0.000000 -1.000000
vn -0.000000 0.000000 -1.000000
vn 1.000000 0.000000 -0.000000
vn 1.000000 0.000000 -0.000000
vn 1.000000 0.000000 -0.000000
vn 1.000000 0.000000 -0.000000
vn 0.000000 0.000000 1.000000
vn 0.000000 0.000000 1.000000
vn 0.000000 0.000000 1.000000
vn 0.000000 0.000000 1.000000
vn 1.000000 0.000000 -0.000000
vn 1.000000 0.000000 -0.000000
vn 1.000000 0.000000 -0.000000
vn 1.000000 0.000000 -0.000000
vn 0.000000 1.000000 0.000000
vn 0.000000 1.000000 0.000000
vn 0.000000 1.000000 0.000000
vn 0.000000 1.000000 0.000000
vn 0.000000 1.000000 0.000000
vn 0.000000 1.000000 0.000000
vn 0.000000 1.000000 0.000000
vn 0.000000 1.000000 0.000000
vn 0.000000 -1.000000 -0.000000
vn 0.000000 -1.000000 -0.000000
vn 0.000000 -1.000000 -0.000000
vn 0.000000 -1.000000 -0.000000
vn 0.000000 -1.000000 -0.000000
vn 0.000000 -1.000000 -0.000000
vn 0.000000 -1.000000 -0.000000
vn 0.000000 -1.000000 -0.000000
usemtl Material_1
f 3//3 4//2 1//1
f 2//4 3//3 1//1
f 6//7 3//6 2//5
f 5//8 6//7 2//5
f 8//11 6//10 5//9
f 7//12 8//11 5//9
f 10//15 8//14 7//13
f 9//16 10//15 7//13
f 12//19 10//18 9//17
f 11//20 12//19 9//17
f 14//23 12//22 11//21
f 13//24 14//23 11//21
f 16//27 14//26 13//25
f 15//28 16//27 13//25
f 4//31 16//30 15//29
f 1//32 4//31 15//29
f 14//35 16//34 4//33
f 6//39 14//35 3//40
f 8//38 10//37 12//36
f 6//39 12//36 14//35
f 6//39 8//38 12//36
f 3//40 14//35 4//33
f 13//44 2//41 1//42
f 13//44 1//42 15//43
f 5//48 2//41 13//44
f 7//47 11//45 9//46
f 5//48 13//44 11//45
f 5//48 11//45 7//47
g Part3_1
v -310.383382 593.519046 439.477375
v -243.743382 593.519046 439.477375
v -243.743382 2493.519046 439.477375
v -310.383382 2493.519046 439.477375
v -243.743382 593.519046 328.137375
v -243.743382 2493.519046 328.137375
v -310.383382 593.519046 328.137375
v -310.383382 2493.519046 328.137375
v -310.383382 593.519046 356.150512
v -310.383382 2493.519046 356.150512
v -271.985893 593.519046 356.150512
v -271.985893 2493.519046 356.150512
v -271.985893 593.519046 411.450512
v -271.985893 2493.519046 411.450512
v -310.383382 593.519046 411.450512
v -310.383382 2493.519046 411.450512
vn 0.000000 -0.000000 1.000000
vn 0.000000 -0.000000 1.000000
vn 0.000000 -0.000000 1.000000
vn 0.000000 -0.000000 1.000000
vn 1.000000 -0.000000 -0.000000
vn 1.000000 -0.000000 -0.000000
vn 1.000000 -0.000000 -0.000000
vn 1.000000 -0.000000 -0.000000
vn -0.000000 0.000000 -1.000000
vn -0.000000 0.000000 -1.000000
vn -0.000000 0.000000 -1.000000
vn -0.000000 0.000000 -1.000000
vn -1.000000 0.000000 0.000000
vn -1.000000 0.000000 0.000000
vn -1.000000 0.000000 0.000000
vn -1.000000 0.000000 0.000000
vn 0.000000 -0.000000 1.000000
vn 0.000000 -0.000000 1.000000
vn 0.000000 -0.000000 1.000000
vn 0.000000 -0.000000 1.000000
vn -1.000000 0.000000 0.000000
vn -1.000000 0.000000 0.000000
vn -1.000000 0.000000 0.000000
vn -1.000000 0.000000 0.000000
vn -0.000000 0.000000 -1.000000
vn -0.000000 0.000000 -1.000000
vn -0.000000 0.000000 -1.000000
vn -0.000000 0.000000 -1.000000
vn -1.000000 0.000000 0.000000
vn -1.000000 0.000000 0.000000
vn -1.000000 0.000000 0.000000
vn -1.000000 0.000000 0.000000
vn 0.000000 1.000000 0.000000
vn 0.000000 1.000000 0.000000
vn 0.000000 1.000000 0.000000
vn 0.000000 1.000000 0.000000
vn 0.000000 1.000000 0.000000
vn 0.000000 1.000000 0.000000
vn 0.000000 1.000000 0.000000
vn 0.000000 1.000000 0.000000
vn -0.000000 -1.000000 -0.000000
vn -0.000000 -1.000000 -0.000000
vn -0.000000 -1.000000 -0.000000
vn -0.000000 -1.000000 -0.000000
vn -0.000000 -1.000000 -0.000000
vn -0.000000 -1.000000 -0.000000
vn -0.000000 -1.000000 -0.000000
vn -0.000000 -1.000000 -0.000000
usemtl Material_1
f 19//51 20//50 17//49
f 18//52 19//51 17//49
f 22//55 19//54 18//53
f 21//56 22//55 18//53
f 24//59 22//58 21//57
f 23//60 24//59 21//57
f 26//63 24//62 23//61
f 25//64 26//63 23//61
f 28//67 26//66 25//65
f 27//68 28//67 25//65
f 30//71 28//70 27//69
f 29//72 30//71 27//69
f 32//75 30//74 29//73
f 31//76 32//75 29//73
f 20//79 32//78 31//77
f 17//80 20//79 31//77
f 30//83 32//82 20//81
f 22//87 30//83 19//88
f 24//86 26//85 28//84
f 22//87 28//84 30//83
f 22//87 24//86 28//84
f 19//88 30//83 20//81
f 29//92 18//89 17//90
f 29//92 17//90 31//91
f 21//96 18//89 29//92
f 23//95 27//93 25//94
f 21//96 29//92 27//93
f 21//96 27//93 23//95
